@startuml atividade01
abstract class Person {
    #Id: string
    #name: string
    #age: int
}
class Employee {
    +Department: Department
    +Salary: Decimal
}
class Professor {
    +Expertise: String
}
class Student {
    +Grade: int
    +GradeLetter: Char
    +GraduationYear: Year
    +void UpdateGrade()
}
Person <|-- Employee
Employee <|-- Professor
Person <|-- Student

note as NoteStudent
   Nome: Brunno Cunha Bernardes
   Matrícula: 202405846
end note

Student .. NoteStudent

@enduml
